<?xml version="1.0" encoding="UTF-8"?>
<svg version="1.1" xmlns="http://www.w3.org/2000/svg" width="280" height="324">
<path d="M0 0 C9.09504429 -0.62485037 9.09504429 -0.62485037 12.625 1.8125 C14 4 14 4 14 7 C14.99 7.33 15.98 7.66 17 8 C18.70533217 11.32091002 19 13.18492784 19 17 C19.66 17.33 20.32 17.66 21 18 C21 17.01 21 16.02 21 15 C21 10.66666667 21 6.33333333 21 2 C22.65 2 24.3 2 26 2 C26 2.99 26 3.98 26 5 C26.7425 5.0825 27.485 5.165 28.25 5.25 C31.73899431 6.2015439 32.77956658 7.13492462 35 10 C38.09665215 15.57836629 39.53879577 20.65844181 40 27 C40.66 27 41.32 27 42 27 C42.70314589 30.35505332 43.25629943 33.68906676 43.68359375 37.08984375 C43.86825195 38.51393555 43.86825195 38.51393555 44.05664062 39.96679688 C44.30999137 41.94293268 44.56000681 43.91949902 44.80664062 45.89648438 C45.45135702 50.82372107 46.19112791 55.34198871 48 60 C52.16444278 70.90326838 54.9603097 80.57756384 52.22265625 92.33984375 C51 95 51 95 48.875 95.875 C48.25625 95.91625 47.6375 95.9575 47 96 C47.42492126 97.29585916 47.86545882 98.5866044 48.3125 99.875 C48.55613281 100.59429687 48.79976563 101.31359375 49.05078125 102.0546875 C49.96335547 104.33994905 49.96335547 104.33994905 53 106 C53.67975031 107.32671087 54.34541827 108.66069235 55 110 C56.55348877 111.79467815 56.55348877 111.79467815 58.37109375 113.49609375 C59.02787109 114.13740234 59.68464844 114.77871094 60.36132812 115.43945312 C61.74146302 116.76765444 63.12167093 118.09577988 64.50195312 119.42382812 C67.92640716 122.76778569 70.66978248 125.7740123 73 130 C73.66 130.33 74.32 130.66 75 131 C75 131.66 75 132.32 75 133 C75.99 133.33 76.98 133.66 78 134 C78 135.32 78 136.64 78 138 C78.763125 138.268125 79.52625 138.53625 80.3125 138.8125 C84.33910035 140.5916955 84.33910035 140.5916955 86 143 C87.19175815 148.63376578 87.83986395 154.48040816 86 160 C82.78517008 163.64347391 80.69310179 164.85599377 75.78515625 165.2734375 C73.94244141 165.32371094 73.94244141 165.32371094 72.0625 165.375 C70.83660156 165.42398438 69.61070312 165.47296875 68.34765625 165.5234375 C65 165 65 165 62.68359375 162.5390625 C61.85021484 161.28222656 61.85021484 161.28222656 61 160 C60.34 159.67 59.68 159.34 59 159 C59 158.34 59 157.68 59 157 C58.34 157 57.68 157 57 157 C55.74335022 154.09399739 55 152.20395416 55 149 C54.34 149 53.68 149 53 149 C51.82625827 146.56568361 50.66084237 144.12795818 49.5 141.6875 C49.16613281 140.99720703 48.83226562 140.30691406 48.48828125 139.59570312 C46 134.33984375 46 134.33984375 46 131 C45.34 131 44.68 131 44 131 C44 129.68 44 128.36 44 127 C43.34 127 42.68 127 42 127 C42 125.68 42 124.36 42 123 C41.34 122.67 40.68 122.34 40 122 C39.814375 121.071875 39.814375 121.071875 39.625 120.125 C38.80177962 117.32605072 37.32502098 116.65001489 35 115 C35 114.34 35 113.68 35 113 C29.41538965 112.85187429 29.41538965 112.85187429 24 114 C23.29605388 115.31403276 22.63654342 116.6520257 22 118 C20.01739574 119.68732277 18.0167658 121.35366057 16 123 C13.56295528 125.65214665 13.56295528 125.65214665 13 129 C11.51387585 130.18889932 10.0271122 131.37702107 8.53515625 132.55859375 C6.27039708 134.68504702 5.1858992 137.16701858 4 140 C3.34 140 2.68 140 2 140 C2 141.98 2 143.96 2 146 C2.66 146.33 3.32 146.66 4 147 C4.309375 147.9590625 4.309375 147.9590625 4.625 148.9375 C6.32395899 151.48593849 7.21803993 151.53861364 10.125 152.25 C12.043125 152.62125 12.043125 152.62125 14 153 C14 153.66 14 154.32 14 155 C16.31 155.66 18.62 156.32 21 157 C21 157.99 21 158.98 21 160 C21.66 160.33 22.32 160.66 23 161 C23 161.99 23 162.98 23 164 C23.66 164 24.32 164 25 164 C25.74170065 168.67338363 26.13927644 173.19224506 26.2109375 177.921875 C26.23929687 179.19417969 26.26765625 180.46648437 26.296875 181.77734375 C26.33614393 183.77416896 26.37527471 185.77102556 26.40136719 187.76806641 C26.42892155 189.71539946 26.47590266 191.66242721 26.5234375 193.609375 C26.5531665 195.3413916 26.5531665 195.3413916 26.58349609 197.10839844 C27.04157591 200.28864307 27.58746985 201.02561112 30 203 C30.2165625 203.99 30.2165625 203.99 30.4375 205 C31.20203163 207.71833467 32.75265877 208.40511268 35 210 C35 210.66 35 211.32 35 212 C35.8353125 212.3403125 35.8353125 212.3403125 36.6875 212.6875 C39.81725537 214.46384764 41.77101476 216.1518522 44 219 C44.5523215 221.90666165 44.34512117 223.99251552 44 227 C39.91484013 231.08515987 31.92364107 229.90050132 26.375 230.1875 C21.8498371 229.93610206 17.33968895 229.34680002 13 228 C12.67 227.34 12.34 226.68 12 226 C9.98330173 224.86649466 9.98330173 224.86649466 8 224 C7.80122324 202.99082569 7.80122324 202.99082569 9 194 C8.16094435 195.12073862 7.32892169 196.24674547 6.5 197.375 C6.0359375 198.00148437 5.571875 198.62796875 5.09375 199.2734375 C3.82161899 200.94094613 3.82161899 200.94094613 4 203 C3.34 203 2.68 203 2 203 C1.01246822 212.14606357 1.10808269 220.84755626 2 230 C2.66 230 3.32 230 4 230 C4 233.96 4 237.92 4 242 C-6.625 242.125 -6.625 242.125 -10 241 C-10 240.34 -10 239.68 -10 239 C-10.78375 238.9175 -11.5675 238.835 -12.375 238.75 C-13.674375 238.37875 -13.674375 238.37875 -15 238 C-16.0625 236.0625 -16.0625 236.0625 -17 234 C-19.0335948 232.73195434 -19.0335948 232.73195434 -21 232 C-21 231.34 -21 230.68 -21 230 C-21.66 230 -22.32 230 -23 230 C-25.35119399 226.47320901 -25.21443452 224.97120515 -25.125 220.8125 C-25.10695312 219.72582031 -25.08890625 218.63914063 -25.0703125 217.51953125 C-25.04710937 216.68808594 -25.02390625 215.85664063 -25 215 C-24.34 215 -23.68 215 -23 215 C-23 214.01 -23 213.02 -23 212 C-22.34 211.34 -21.68 210.68 -21 210 C-21 209.34 -21 208.68 -21 208 C-16.68181818 203.34090909 -16.68181818 203.34090909 -14 202 C-12.82513503 199.37383124 -11.90985138 196.72955415 -11 194 C-10.34 193.67 -9.68 193.34 -9 193 C-8.31527335 191.11235097 -8.31527335 191.11235097 -7.875 188.9375 C-7.70742187 188.20402344 -7.53984375 187.47054687 -7.3671875 186.71484375 C-7.24601562 186.14894531 -7.12484375 185.58304688 -7 185 C-6.34 185 -5.68 185 -5 185 C-5 183.02 -5 181.04 -5 179 C-5.66 178.67 -6.32 178.34 -7 178 C-7.433125 177.525625 -7.86625 177.05125 -8.3125 176.5625 C-12.17915523 172.98226368 -16.93091513 172.59636293 -22 172 C-22.33 171.01 -22.66 170.02 -23 169 C-23.66 168.67 -24.32 168.34 -25 168 C-27.23085064 161.89376138 -27.22660292 152.95215214 -24.625 147 C-24.08875 146.01 -23.5525 145.02 -23 144 C-22.649375 143.05125 -22.29875 142.1025 -21.9375 141.125 C-21 139 -21 139 -19 138 C-18.09656316 136.11736119 -18.09656316 136.11736119 -17.375 133.9375 C-17.11460938 133.20402344 -16.85421875 132.47054687 -16.5859375 131.71484375 C-16.39257812 131.14894531 -16.19921875 130.58304688 -16 130 C-15.34 130 -14.68 130 -14 130 C-13.855625 129.236875 -13.71125 128.47375 -13.5625 127.6875 C-13 125 -13 125 -12 122 C-11.34 122 -10.68 122 -10 122 C-9.01 117.38 -8.02 112.76 -7 108 C-6.34 108 -5.68 108 -5 108 C-4.70738858 101.8917901 -4.70738858 101.8917901 -6 96 C-6.99 95.505 -6.99 95.505 -8 95 C-8.185625 94.071875 -8.185625 94.071875 -8.375 93.125 C-9.23181141 90.2118412 -10.41130628 89.5392233 -13 88 C-14.98014432 87.27648573 -16.97821315 86.59734611 -19 86 C-19 85.34 -19 84.68 -19 84 C-20.2375 83.855625 -21.475 83.71125 -22.75 83.5625 C-25.56504499 83.21311498 -28.2701497 82.79620634 -31 82 C-31 81.34 -31 80.68 -31 80 C-32.7634375 79.814375 -32.7634375 79.814375 -34.5625 79.625 C-38.52771609 79.20760883 -42.17635175 78.11523074 -46 77 C-48.80659017 76.26767253 -51.62160968 75.57059962 -54.4375 74.875 C-55.16904297 74.69324219 -55.90058594 74.51148437 -56.65429688 74.32421875 C-58.43592749 73.88172226 -60.21792542 73.44070512 -62 73 C-62 72.34 -62 71.68 -62 71 C-62.66 71 -63.32 71 -64 71 C-64 68.03 -64 65.06 -64 62 C-52.29425272 57.5279413 -39.79695463 60.18881081 -28 63 C-28 63.66 -28 64.32 -28 65 C-26.98679687 65.18175781 -26.98679687 65.18175781 -25.953125 65.3671875 C-25.06109375 65.53476563 -24.1690625 65.70234375 -23.25 65.875 C-22.36828125 66.03742188 -21.4865625 66.19984375 -20.578125 66.3671875 C-18 67 -18 67 -16.0234375 68.02734375 C-13.45156591 69.26362951 -11.21145119 69.45431466 -8.375 69.6875 C-6.93253906 69.81705078 -6.93253906 69.81705078 -5.4609375 69.94921875 C-2.99433432 70.19115504 -2.99433432 70.19115504 -1 69 C-1 68.34 -1 67.68 -1 67 C-1.99 66.505 -1.99 66.505 -3 66 C-5.32489522 63.32284793 -6.87224129 61.38327612 -8 58 C-9.83084294 56.22060106 -9.83084294 56.22060106 -12 54.5 C-15.88888889 51.33333333 -15.88888889 51.33333333 -17 48 C-17.7425 47.9175 -18.485 47.835 -19.25 47.75 C-22.56331349 46.84636905 -23.88115832 45.66817101 -26 43 C-26 42.01 -26 41.02 -26 40 C-27.2065625 39.814375 -27.2065625 39.814375 -28.4375 39.625 C-29.283125 39.41875 -30.12875 39.2125 -31 39 C-31.33 38.34 -31.66 37.68 -32 37 C-32.845625 36.505 -33.69125 36.01 -34.5625 35.5 C-35.366875 35.005 -36.17125 34.51 -37 34 C-37 33.34 -37 32.68 -37 32 C-37.61875 31.855625 -38.2375 31.71125 -38.875 31.5625 C-41 31 -41 31 -43 30 C-43.08131463 28.56344146 -43.13933559 27.1255517 -43.1875 25.6875 C-43.23970703 24.48673828 -43.23970703 24.48673828 -43.29296875 23.26171875 C-43 21 -43 21 -41.84375 19.1875 C-39.19077799 17.47880617 -37.39855632 17.91312801 -34.3125 18.3125 C-33.31863281 18.43238281 -32.32476562 18.55226563 -31.30078125 18.67578125 C-30.54152344 18.78277344 -29.78226563 18.88976562 -29 19 C-29 19.66 -29 20.32 -29 21 C-28.01 21 -27.02 21 -26 21 C-25.34 21.66 -24.68 22.32 -24 23 C-23.01 23.33 -22.02 23.66 -21 24 C-21 24.66 -21 25.32 -21 26 C-20.2575 26.226875 -19.515 26.45375 -18.75 26.6875 C-15.45684836 28.25923147 -14.22521843 30.14893889 -12 33 C-10.33675599 34.00568242 -8.67063747 35.00664799 -7 36 C-6.67 36.99 -6.34 37.98 -6 39 C-4.6723844 39.35542327 -3.33797902 39.68583282 -2 40 C-0.26074219 41.36694336 -0.26074219 41.36694336 1.453125 43.08984375 C2.071875 43.70923828 2.690625 44.32863281 3.328125 44.96679688 C4.27945313 45.94229492 4.27945313 45.94229492 5.25 46.9375 C5.8996875 47.58396484 6.549375 48.23042969 7.21875 48.89648438 C12 53.73297991 12 53.73297991 12 56 C12.66 56 13.32 56 14 56 C13.35169636 43.96768568 13.35169636 43.96768568 12 32 C11.34 32 10.68 32 10 32 C9.01 27.545 9.01 27.545 8 23 C7.34 23 6.68 23 6 23 C5.01 19.7 4.02 16.4 3 13 C2.34 13 1.68 13 1 13 C0.1276588 10.00519083 -0.10829766 7.36424089 -0.0625 4.25 C-0.05347656 3.45078125 -0.04445312 2.6515625 -0.03515625 1.828125 C-0.02355469 1.22484375 -0.01195312 0.6215625 0 0 Z M22 19 C21.67 19.99 21.34 20.98 21 22 C21.66 22 22.32 22 23 22 C22.67 21.01 22.34 20.02 22 19 Z M23 23 C23 23.99 23 24.98 23 26 C23.66 26 24.32 26 25 26 C25 25.01 25 24.02 25 23 C24.34 23 23.68 23 23 23 Z M25 27 C26 31 26 31 26 31 Z M26 31 C25.40929986 32.94603274 25.40929986 32.94603274 25 35 C25.33 35.33 25.66 35.66 26 36 C26.18452333 37.39124735 26.32269658 38.78877264 26.4375 40.1875 C26.82804722 44.05025615 27.64897046 47.34427302 29 51 C29.69495082 53.32595784 30.34542185 55.66222088 31 58 C31.33 58 31.66 58 32 58 C32.32368607 46.17217223 32.32368607 46.17217223 29 35 C28.34 35 27.68 35 27 35 C26.67 33.68 26.34 32.36 26 31 Z " fill="#5792B7" transform="translate(88,8)"/>
<path d="M0 0 C0.69287109 0.00451172 1.38574219 0.00902344 2.09960938 0.01367188 C3.79561068 0.02536844 5.49156703 0.04330076 7.1875 0.0625 C7.1875 3.0325 7.1875 6.0025 7.1875 9.0625 C6.5275 9.3925 5.8675 9.7225 5.1875 10.0625 C4.8575 11.0525 4.5275 12.0425 4.1875 13.0625 C3.1975 13.3925 2.2075 13.7225 1.1875 14.0625 C0.8575 14.7225 0.5275 15.3825 0.1875 16.0625 C-1.85774321 16.65755999 -3.90583957 17.01716781 -6 17.40234375 C-6.598125 17.62019531 -7.19625 17.83804688 -7.8125 18.0625 C-8.3075 19.5475 -8.3075 19.5475 -8.8125 21.0625 C-10.4140625 21.984375 -10.4140625 21.984375 -12.4375 22.8125 C-17.09701096 24.98245276 -20.63055775 28.02541077 -23.8125 32.0625 C-23.8125 32.7225 -23.8125 33.3825 -23.8125 34.0625 C-24.4725 34.0625 -25.1325 34.0625 -25.8125 34.0625 C-27.23488644 41.36493039 -28.02308413 48.4459298 -28.0625 55.875 C-28.07152344 56.567146 -28.08054687 57.25929199 -28.08984375 57.97241211 C-28.06127389 62.96320875 -27.08196226 67.24156593 -25.8125 72.0625 C-25.8125 73.3825 -25.8125 74.7025 -25.8125 76.0625 C-25.1525 76.0625 -24.4925 76.0625 -23.8125 76.0625 C-23.255625 77.135 -22.69875 78.2075 -22.125 79.3125 C-20.17301001 82.74745059 -17.98639616 84.68207788 -14.8125 87.0625 C-14.27625 87.84625 -13.74 88.63 -13.1875 89.4375 C-7.68163411 95.52293072 0.26203297 98.56712886 8.1875 100.0625 C8.1875 100.7225 8.1875 101.3825 8.1875 102.0625 C16.75007312 102.94769242 25.23686064 103.21990505 33.84301758 103.19287109 C35.88304983 103.18747872 37.9228647 103.19287037 39.96289062 103.19921875 C46.78942715 103.19252935 53.42367847 103.00212681 60.1875 102.0625 C60.1875 101.4025 60.1875 100.7425 60.1875 100.0625 C60.82816406 99.89234375 61.46882813 99.7221875 62.12890625 99.546875 C67.68268551 97.99082358 72.36313433 96.24452842 77.1875 93.0625 C77.5175 92.4025 77.8475 91.7425 78.1875 91.0625 C79.05375 90.6603125 79.05375 90.6603125 79.9375 90.25 C83.96329979 88.12527233 86.74789028 85.38132916 88.1875 81.0625 C88.8475 81.0625 89.5075 81.0625 90.1875 81.0625 C89.61165568 78.67685923 88.96522405 76.39567216 88.1875 74.0625 C83.5675 74.0625 78.9475 74.0625 74.1875 74.0625 C74.1875 74.7225 74.1875 75.3825 74.1875 76.0625 C73.47464844 76.24425781 72.76179688 76.42601562 72.02734375 76.61328125 C66.50949833 78.06143718 61.40655333 79.73256548 56.1875 82.0625 C51.5496972 83.8115019 46.88981992 85.49506003 42.1875 87.0625 C42.1875 87.7225 42.1875 88.3825 42.1875 89.0625 C39.54011084 90.5231285 38.29301666 91.0625 35.1875 91.0625 C35.1875 91.7225 35.1875 92.3825 35.1875 93.0625 C28.48125697 95.45962517 22.33877109 96.81374464 15.1875 96.0625 C14.1875 95.0625 14.1875 95.0625 14 91.3125 C14.05628383 87.82915639 14.34261485 85.1065605 16.1875 82.0625 C17.51546291 81.70837656 18.84966607 81.37728446 20.1875 81.0625 C21.52577304 79.39979713 22.85939785 77.73333819 24.1875 76.0625 C25.1775 76.0625 26.1675 76.0625 27.1875 76.0625 C27.6825 74.5775 27.6825 74.5775 28.1875 73.0625 C30.1675 72.7325 32.1475 72.4025 34.1875 72.0625 C34.1875 71.4025 34.1875 70.7425 34.1875 70.0625 C35.1775 70.0625 36.1675 70.0625 37.1875 70.0625 C37.1875 69.4025 37.1875 68.7425 37.1875 68.0625 C40.6525 67.5675 40.6525 67.5675 44.1875 67.0625 C44.1875 66.4025 44.1875 65.7425 44.1875 65.0625 C48.3071377 63.77006464 51.85581683 62.79997375 56.1875 63.0625 C56.1875 62.4025 56.1875 61.7425 56.1875 61.0625 C67.70914009 58.76637244 67.70914009 58.76637244 73.1875 59.0625 C73.1875 58.4025 73.1875 57.7425 73.1875 57.0625 C74.14011719 56.97613281 75.09273438 56.88976562 76.07421875 56.80078125 C77.32847656 56.66027344 78.58273438 56.51976562 79.875 56.375 C81.11636719 56.24738281 82.35773438 56.11976563 83.63671875 55.98828125 C87.86542348 54.88574767 89.53424041 53.49404907 92.1875 50.0625 C92.39000906 43.98722827 90.39009238 40.05765022 87.24609375 34.9453125 C86.1875 33.0625 86.1875 33.0625 86.1875 31.0625 C85.61 30.8046875 85.0325 30.546875 84.4375 30.28125 C81.24715881 28.55314852 78.84259676 26.16641733 76.1875 23.71875 C74.26122445 22.12355306 72.46260263 21.07817082 70.1875 20.0625 C70.1875 19.4025 70.1875 18.7425 70.1875 18.0625 C69.1975 18.0625 68.2075 18.0625 67.1875 18.0625 C67.27458669 16.60304712 67.38276907 15.14484132 67.5 13.6875 C67.55800781 12.87539062 67.61601563 12.06328125 67.67578125 11.2265625 C68.1875 9.0625 68.1875 9.0625 71.1875 7.0625 C76.31134623 6.47195501 81.63000856 6.41621465 86.1875 9.0625 C86.5175 9.7225 86.8475 10.3825 87.1875 11.0625 C88.095 11.475 89.0025 11.8875 89.9375 12.3125 C95.07170647 15.07707271 97.59900117 18.88550235 100.1875 24.0625 C101.1775 24.7225 102.1675 25.3825 103.1875 26.0625 C103.1875 27.0525 103.1875 28.0425 103.1875 29.0625 C103.8475 29.0625 104.5075 29.0625 105.1875 29.0625 C106.44414978 31.96850261 107.1875 33.85854584 107.1875 37.0625 C107.8475 37.3925 108.5075 37.7225 109.1875 38.0625 C111.06936002 41.0943856 111.1875 42.30767355 111.1875 46.0625 C111.8475 46.0625 112.5075 46.0625 113.1875 46.0625 C115.9257652 59.17368504 115.65609372 72.90364025 113.1875 86.0625 C112.5275 86.0625 111.8675 86.0625 111.1875 86.0625 C110.9709375 87.4546875 110.9709375 87.4546875 110.75 88.875 C110.1875 92.0625 110.1875 92.0625 109.1875 95.0625 C108.1975 95.0625 107.2075 95.0625 106.1875 95.0625 C106.1875 96.3825 106.1875 97.7025 106.1875 99.0625 C105.1975 99.5575 105.1975 99.5575 104.1875 100.0625 C103.775 100.784375 103.3625 101.50625 102.9375 102.25 C99.92494856 107.09160053 96.36465634 110.64649371 91.1875 113.0625 C90.48625 113.76375 89.785 114.465 89.0625 115.1875 C88.44375 115.80625 87.825 116.425 87.1875 117.0625 C86.5275 117.0625 85.8675 117.0625 85.1875 117.0625 C84.8575 118.0525 84.5275 119.0425 84.1875 120.0625 C81.2175 120.5575 81.2175 120.5575 78.1875 121.0625 C78.1875 121.7225 78.1875 122.3825 78.1875 123.0625 C76.6063708 123.56942692 75.02248617 124.06776443 73.4375 124.5625 C72.55578125 124.8409375 71.6740625 125.119375 70.765625 125.40625 C68.1875 126.0625 68.1875 126.0625 64.1875 126.0625 C64.1875 126.7225 64.1875 127.3825 64.1875 128.0625 C55.40651465 130.16955251 46.86951498 130.37232637 37.8984375 130.32324219 C35.55963414 130.31248682 33.22159317 130.32321077 30.8828125 130.3359375 C23.419661 130.3418866 16.41510506 130.14643189 9.1875 128.0625 C9.1875 127.4025 9.1875 126.7425 9.1875 126.0625 C7.970625 125.93875 6.75375 125.815 5.5 125.6875 C2.12270941 125.27358694 -0.71006695 124.51676549 -3.8125 123.0625 C-3.8125 122.4025 -3.8125 121.7425 -3.8125 121.0625 C-4.66134766 120.88074219 -4.66134766 120.88074219 -5.52734375 120.6953125 C-6.26082031 120.52773438 -6.99429688 120.36015625 -7.75 120.1875 C-8.48089844 120.02507812 -9.21179687 119.86265625 -9.96484375 119.6953125 C-11.8125 119.0625 -11.8125 119.0625 -12.8125 117.0625 C-13.658125 116.5675 -14.50375 116.0725 -15.375 115.5625 C-16.179375 115.0675 -16.98375 114.5725 -17.8125 114.0625 C-17.8125 113.4025 -17.8125 112.7425 -17.8125 112.0625 C-18.51375 112.041875 -19.215 112.02125 -19.9375 112 C-23.6999818 110.77310376 -25.10093304 108.72013767 -27.48046875 105.65625 C-28.74186016 103.93136375 -28.74186016 103.93136375 -30.8125 103.0625 C-32.38798683 100.43668862 -32.8125 99.19150213 -32.8125 96.0625 C-33.4725 95.7325 -34.1325 95.4025 -34.8125 95.0625 C-35.4375 92.5 -35.4375 92.5 -35.8125 90.0625 C-36.8025 89.7325 -37.7925 89.4025 -38.8125 89.0625 C-39.76171875 87.3203125 -39.76171875 87.3203125 -40.5 85.1875 C-40.75136719 84.48882812 -41.00273438 83.79015625 -41.26171875 83.0703125 C-41.8125 81.0625 -41.8125 81.0625 -41.8125 78.0625 C-42.4725 78.0625 -43.1325 78.0625 -43.8125 78.0625 C-46.99750662 62.23225876 -47.48287755 48.85823197 -43.8125 33.0625 C-43.1525 33.0625 -42.4925 33.0625 -41.8125 33.0625 C-41.668125 32.299375 -41.52375 31.53625 -41.375 30.75 C-40.8125 28.0625 -40.8125 28.0625 -39.8125 25.0625 C-39.1525 24.7325 -38.4925 24.4025 -37.8125 24.0625 C-37.4825 23.0725 -37.1525 22.0825 -36.8125 21.0625 C-36.1525 21.0625 -35.4925 21.0625 -34.8125 21.0625 C-34.8125 19.7425 -34.8125 18.4225 -34.8125 17.0625 C-33.23828125 15.24609375 -33.23828125 15.24609375 -31.125 13.5 C-30.39796875 12.89671875 -29.6709375 12.2934375 -28.921875 11.671875 C-26.65088038 9.93919021 -24.28632198 8.48682175 -21.8125 7.0625 C-21.4825 6.4025 -21.1525 5.7425 -20.8125 5.0625 C-19.140625 4.02734375 -19.140625 4.02734375 -17.0625 3 C-16.38703125 2.65839844 -15.7115625 2.31679687 -15.015625 1.96484375 C-10.08175729 -0.05594249 -5.26490703 -0.06549645 0 0 Z " fill="#CD1387" transform="translate(59.8125,185.9375)"/>
<path d="M0 0 C1.40171148 0.02389281 2.80316882 0.07435223 4.203125 0.1484375 C4.8940625 0.16261719 5.585 0.17679688 6.296875 0.19140625 C10.7449026 0.31682056 15.06129704 0.82212466 19.453125 1.5234375 C19.453125 2.1834375 19.453125 2.8434375 19.453125 3.5234375 C20.10539062 3.58402344 20.75765625 3.64460937 21.4296875 3.70703125 C26.14028717 4.15863741 30.79514138 4.66538789 35.453125 5.5234375 C35.453125 6.1834375 35.453125 6.8434375 35.453125 7.5234375 C36.67 7.6678125 37.886875 7.8121875 39.140625 7.9609375 C42.27982877 8.35124703 45.3606384 8.84695606 48.453125 9.5234375 C48.453125 10.1834375 48.453125 10.8434375 48.453125 11.5234375 C49.46375 11.6471875 50.474375 11.7709375 51.515625 11.8984375 C55.33250112 12.50429085 58.76812612 13.39537662 62.453125 14.5234375 C62.453125 15.1834375 62.453125 15.8434375 62.453125 16.5234375 C63.34 16.6471875 64.226875 16.7709375 65.140625 16.8984375 C68.15700002 17.46756486 70.65638554 18.28958186 73.453125 19.5234375 C73.453125 20.1834375 73.453125 20.8434375 73.453125 21.5234375 C74.154375 21.5440625 74.855625 21.5646875 75.578125 21.5859375 C79.8825117 22.98954186 82.29185777 25.57202973 84.453125 29.5234375 C84.92583569 32.59849367 84.8304006 35.44235345 84.453125 38.5234375 C77.85921958 39.52333299 72.83545375 39.53268914 66.453125 37.5234375 C66.453125 36.8634375 66.453125 36.2034375 66.453125 35.5234375 C65.380625 35.3790625 64.308125 35.2346875 63.203125 35.0859375 C60.53649551 34.68594308 58.03912771 34.24751826 55.453125 33.5234375 C55.453125 32.8634375 55.453125 32.2034375 55.453125 31.5234375 C50.998125 30.5334375 50.998125 30.5334375 46.453125 29.5234375 C46.453125 28.8634375 46.453125 28.2034375 46.453125 27.5234375 C41.833125 26.5334375 37.213125 25.5434375 32.453125 24.5234375 C32.453125 23.8634375 32.453125 23.2034375 32.453125 22.5234375 C29.45325507 22.35409 26.45326408 22.18788957 23.453125 22.0234375 C22.61394531 21.97574219 21.77476562 21.92804688 20.91015625 21.87890625 C16.94009878 21.66347677 12.99208428 21.49794738 9.015625 21.5234375 C5.96028065 21.5234375 3.40254867 21.26079342 0.453125 20.5234375 C0.453125 19.8634375 0.453125 19.2034375 0.453125 18.5234375 C-0.4440625 18.0903125 -0.4440625 18.0903125 -1.359375 17.6484375 C-3.546875 16.5234375 -3.546875 16.5234375 -6.546875 14.5234375 C-6.9453125 12.53515625 -6.9453125 12.53515625 -6.921875 10.2109375 C-6.92960938 9.45167969 -6.93734375 8.69242188 -6.9453125 7.91015625 C-6.12574986 3.00081533 -5.12152668 0.75582002 0 0 Z " fill="#D50B84" transform="translate(182.546875,241.4765625)"/>
</svg>
