<?xml version="1.0" encoding="UTF-8"?>
<svg version="1.1" xmlns="http://www.w3.org/2000/svg" width="280" height="324">
<path d="M0 0 C3.125 -0.5 3.125 -0.5 7 0 C19.12420505 10.14236384 20.41186814 30.65292822 23 45 C23.66 45 24.32 45 25 45 C23.51357901 35.42953503 21.43589889 26.45181384 17.98193359 17.38134766 C16.04129785 12.0534649 15.74853916 7.67183905 16 2 C20.30285329 2.92534479 23.23520198 4.55112824 26 8 C31.03320825 18.00986359 33.27607711 29.06273468 34.9375 40.0625 C35.59145851 44.30484624 36.6572983 48.0926827 38.125 52.125 C39.98577372 57.4694779 41.07083703 62.36295226 40 68 C38.68457624 70.01182457 37.3540932 72.01399663 36 74 C37.03681874 79.12018021 39.43478281 81.97542017 43 85.6875 C43.99382755 86.73665913 44.98730946 87.78614576 45.98046875 88.8359375 C46.48368652 89.36155273 46.9869043 89.88716797 47.50537109 90.42871094 C65.67913059 109.53461033 65.67913059 109.53461033 66.3125 116.375 C65.94884973 120.59334314 64.95115008 122.04884992 62 125 C59.65423185 126.17288408 57.92826591 126.37422895 55.3125 126.5625 C54.48363281 126.64628906 53.65476562 126.73007813 52.80078125 126.81640625 C47.39958949 125.24200028 44.35702692 120.29201871 41.58618164 115.61206055 C40.28459485 113.12171264 39.06527318 110.60782359 37.875 108.0625 C34.26104184 100.51014788 34.26104184 100.51014788 30.4453125 93.05859375 C30.07164551 92.34888428 29.69797852 91.6391748 29.31298828 90.90795898 C27.78304275 88.68473022 26.30289792 87.39928199 24 86 C16.64765263 86.83549402 12.17094242 93.45324738 7.67578125 98.7265625 C4.54584491 102.69224101 2.24886676 105.75566618 1.25 110.75 C3.76045924 115.41228145 7.45317014 116.92265031 12.1171875 119.2265625 C15.9516394 121.58542586 17.37594315 123.93694148 18.6640625 128.1953125 C19.27290876 133.27847085 19.32390422 138.4041541 19.4296875 143.51953125 C19.68126681 150.4903745 20.55760006 155.38067031 25.48046875 160.66015625 C27.29082121 162.26674609 29.10333782 163.87090048 30.91796875 165.47265625 C33 168 33 168 33.36328125 171.24609375 C33 174 33 174 32 175 C22.10448968 176.81754271 14.44968481 176.63312321 6 171 C5.671875 168.05859375 5.671875 168.05859375 5.75 164.4375 C5.78867188 162.55998047 5.78867188 162.55998047 5.828125 160.64453125 C6.02905666 156.38386672 6.41732368 152.22440333 7 148 C2.51256614 153.80484563 -0.37935857 158.52296495 0 166 C0.41327844 168.804676 0.9373112 171.56160035 1.51953125 174.3359375 C2.17280694 177.95816532 2.13851528 181.32934521 2 185 C-4.85980046 185.61248218 -8.64420719 184.31660913 -14 180 C-16.68601629 177.74972969 -18.69872788 175.57739535 -19.38208008 171.99951172 C-19.60533244 165.46192634 -17.63790068 161.94625838 -13.6875 156.875 C-7.17931304 148.44098039 -7.17931304 148.44098039 -4.9375 138.25 C-5.70152722 134.79376489 -5.70152722 134.79376489 -8.75 133.125 C-11.85676244 131.9186997 -11.85676244 131.9186997 -14.6875 131.6875 C-17 131 -17 131 -18.8125 128.5 C-21.23951017 121.34670686 -20.66091827 116.8937005 -17.43530273 110.31665039 C-16.00416809 107.5272065 -14.54143308 104.75599903 -13.06054688 101.99267578 C-5.56550667 88.70219493 -5.56550667 88.70219493 -4.4296875 73.9375 C-6.9954259 68.26843992 -12.55920759 66.27013278 -18 64 C-22.76712969 62.42811706 -27.58871628 61.10735999 -32.4375 59.8125 C-34.93748311 59.13624374 -37.43624952 58.45546847 -39.93359375 57.76953125 C-41.02728271 57.47667236 -42.12097168 57.18381348 -43.24780273 56.88208008 C-46 56 -46 56 -49 54 C-49.1875 50.875 -49.1875 50.875 -49 48 C-43.5031134 44.80204495 -37.15401253 45.03584336 -31.05615234 46.45117188 C-26.94448451 47.60399458 -22.90859357 48.97862312 -18.87158203 50.3671875 C-16.2272605 51.26127587 -13.56064184 52.05248163 -10.875 52.8125 C-10.06804687 53.04582031 -9.26109375 53.27914062 -8.4296875 53.51953125 C-5.57803259 54.08344372 -2.89951981 54.07984185 0 54 C-1.17898915 52.30654286 -2.36872378 50.6205659 -3.5625 48.9375 C-4.22378906 47.99777344 -4.88507813 47.05804688 -5.56640625 46.08984375 C-10.85305688 39.37757946 -17.04770904 34.21015464 -23.875 29.125 C-25.39358911 27.982249 -26.91183726 26.83904472 -28.4296875 25.6953125 C-29.09210449 25.20047363 -29.75452148 24.70563477 -30.43701172 24.19580078 C-32 23 -32 23 -33 22 C-33.1875 19.0625 -33.1875 19.0625 -33 16 C-31 14 -31 14 -27.5 13.9375 C-14.6836922 16.00464642 -1.02679437 31.57530313 7.64453125 40.671875 C8.80276479 42.11664426 8.80276479 42.11664426 10 42 C11.15133948 30.5505685 7.46863594 22.37873463 2.7109375 12.2578125 C0.69419691 7.94866174 -0.5020587 4.89507228 0 0 Z " fill="#FFFFFF" transform="translate(106,40)"/>
<path d="M0 0 C0.98484375 0.00902344 1.9696875 0.01804688 2.984375 0.02734375 C4.10585937 0.04474609 4.10585937 0.04474609 5.25 0.0625 C5.5625 2.75 5.5625 2.75 5.25 6.0625 C1.34763839 10.6750475 -3.30043688 13.2346787 -8.578125 15.93554688 C-13.8542684 18.77434142 -17.39717499 22.02441516 -19.89453125 27.6328125 C-22.58619839 37.92725876 -23.19828685 48.16255333 -18.75 58.0625 C-12.8601161 68.0574545 -4.68889697 73.54779038 6.25 77.0625 C23.18969465 81.3984214 41.79953596 81.1347583 57.20703125 72.3828125 C61.98870849 69.23236629 66.13511643 65.89594001 69.25 61.0625 C69.21624167 58.74078408 69.21624167 58.74078408 68.25 57.0625 C61.33103761 55.25202186 56.04306081 57.32225651 49.4375 59.625 C48.40818359 59.96080078 47.37886719 60.29660156 46.31835938 60.64257812 C40.20677208 62.71843036 34.84835944 65.22941727 29.41796875 68.72290039 C23.95459153 72.09875071 18.73108307 73.59156801 12.25 73.0625 C11.92 72.7325 11.59 72.4025 11.25 72.0625 C11.40437301 68.04880168 11.75283996 65.6994863 14.25 62.5 C28.03534712 51.29940546 42.74558597 46.35475915 60.12768555 43.54492188 C61.44313354 43.3196582 61.44313354 43.3196582 62.78515625 43.08984375 C63.572854 42.96343506 64.36055176 42.83702637 65.17211914 42.70678711 C67.65040706 41.93834605 68.69118994 41.12546165 70.25 39.0625 C71.23423407 32.7196582 69.77824165 29.29747678 66.03125 24.171875 C62.09690001 19.51277632 57.60467511 15.98323188 52.25 13.0625 C53 7.3125 53 7.3125 55.25 5.0625 C59.90342132 4.30275774 62.78525691 5.06278589 66.6875 7.5 C77.87797825 15.70761732 84.97801405 27.37678043 87.6875 41 C89.34247266 53.54101502 87.80433373 65.90601656 80.38671875 76.46484375 C70.10432216 88.96538073 56.40618573 96.96148584 40.25 99.0625 C25.95284211 100.23628772 12.37805511 100.27238303 -0.75 94.0625 C-2.21373047 93.41087891 -2.21373047 93.41087891 -3.70703125 92.74609375 C-19.90629977 84.79372557 -28.05449591 71.85418398 -33.8046875 55.2890625 C-37.15971342 43.83761039 -36.37486555 32.70562737 -31.23828125 21.875 C-25.71139304 11.9390212 -18.93879719 4.0878504 -7.83984375 0.43359375 C-5.19712103 -0.03567477 -2.68244738 -0.0319339 0 0 Z " fill="#FFFFFF" transform="translate(83.75,176.9375)"/>
<path d="M0 0 C19.16041106 -0.2192894 45.22861875 6.71253414 61.01171875 17.9609375 C63.80163781 20.70435791 64.84475861 21.8098587 65.29296875 25.84375 C65.10734375 27.143125 65.10734375 27.143125 64.91796875 28.46875 C58.95881807 29.58279476 55.04255985 29.31045895 49.41796875 26.90625 C48.7336377 26.63393555 48.04930664 26.36162109 47.34423828 26.08105469 C45.19547608 25.22586992 43.05639571 24.34942241 40.91796875 23.46875 C29.83779181 18.9388052 19.41338079 15.36098579 7.22265625 15.515625 C2.46195439 15.44809731 -0.73957513 13.81120612 -4.08203125 10.46875 C-4.76536738 1.07287821 -4.76536738 1.07287821 0 0 Z " fill="#FFFFFF" transform="translate(178.08203125,219.53125)"/>
<path d="M0 0 C0.66 0.33 1.32 0.66 2 1 C1.4225 1.69867188 0.845 2.39734375 0.25 3.1171875 C-0.4925 4.02726563 -1.235 4.93734375 -2 5.875 C-2.7425 6.77992188 -3.485 7.68484375 -4.25 8.6171875 C-6.19731211 10.7759284 -6.19731211 10.7759284 -6 13 C-3.03 13 -0.06 13 3 13 C-0.65653827 15.43769218 -2.69000101 15.23944439 -7 15 C-7.33 14.67 -7.66 14.34 -8 14 C-7.83187212 9.628675 -7.4652076 7.536778 -4.5625 4.1875 C-3.716875 3.465625 -2.87125 2.74375 -2 2 C-1.34 1.34 -0.68 0.68 0 0 Z " fill="#FFFFFF" transform="translate(103,235)"/>
<path d="M0 0 C2.64453125 -0.328125 2.64453125 -0.328125 5.8125 -0.25 C6.85019531 -0.23453125 7.88789063 -0.2190625 8.95703125 -0.203125 C11.72921322 -0.01807563 14.29580632 0.38018481 17 1 C17 1.33 17 1.66 17 2 C15.53626953 1.94779297 15.53626953 1.94779297 14.04296875 1.89453125 C12.77066406 1.86746094 11.49835938 1.84039062 10.1875 1.8125 C8.92292969 1.77769531 7.65835938 1.74289063 6.35546875 1.70703125 C3.065991 1.71535351 3.065991 1.71535351 1.0390625 3.35546875 C-0.24743307 5.02993043 -0.24743307 5.02993043 0.1875 7.5 C0.94271259 10.20696281 0.94271259 10.20696281 3 13 C-0.875 11.125 -0.875 11.125 -2 10 C-2.35897436 3.53846154 -2.35897436 3.53846154 0 0 Z " fill="#FFFFFF" transform="translate(176,220)"/>
<path d="M0 0 C-0.350625 0.94875 -0.70125 1.8975 -1.0625 2.875 C-2.35026777 5.87060172 -2.35026777 5.87060172 -1 8 C-1.99 7.67 -2.98 7.34 -4 7 C-4 5.02 -4 3.04 -4 1 C-2 0 -2 0 0 0 Z " fill="#FFFFFF" transform="translate(61,87)"/>
</svg>
