<?xml version="1.0" standalone="no"?>
<!DOCTYPE svg PUBLIC "-//W3C//DTD SVG 20010904//EN"
 "http://www.w3.org/TR/2001/REC-SVG-20010904/DTD/svg10.dtd">
<svg version="1.0" xmlns="http://www.w3.org/2000/svg"
 width="324.000000pt" height="324.000000pt" viewBox="0 0 324.000000 324.000000"
 preserveAspectRatio="xMidYMid meet">
<metadata>
Created by potrace 1.14, written by Peter Selinger 2001-2017
</metadata>
<g transform="translate(0.000000,324.000000) scale(0.100000,-0.100000)"
fill="#000000" stroke="none">
<path d="M1114 3145 c-2 -5 -2 -17 0 -25 2 -8 7 -30 11 -47 4 -18 11 -33 16
-33 5 0 6 -7 3 -15 -4 -8 -2 -15 4 -15 8 0 21 -26 33 -68 1 -4 14 -29 28 -57
14 -27 26 -54 27 -60 0 -5 2 -12 3 -15 18 -39 24 -193 8 -214 -11 -15 -18 -12
-61 29 -27 25 -53 45 -58 45 -5 0 -7 4 -4 8 3 5 -6 16 -19 26 -14 10 -22 23
-18 29 3 5 1 7 -4 4 -11 -7 -37 13 -119 89 -24 23 -44 38 -44 35 0 -3 -6 1
-13 9 -12 16 -63 51 -72 50 -10 -1 -33 25 -29 32 2 3 -5 4 -16 1 -11 -3 -26
-1 -33 5 -29 23 -73 -7 -72 -50 0 -24 47 -78 68 -78 4 0 16 -8 26 -17 11 -10
30 -26 43 -35 86 -66 228 -200 228 -217 0 -5 4 -11 8 -13 17 -7 53 -69 50 -85
-3 -16 -68 -39 -68 -24 0 4 -12 6 -27 5 -16 -1 -59 9 -98 22 -38 14 -74 26
-80 28 -5 1 -17 6 -25 9 -20 7 -88 28 -103 31 -7 2 -23 6 -37 9 -44 11 -120
14 -120 5 0 -6 -6 -8 -12 -5 -22 7 -69 -33 -66 -56 3 -20 56 -58 71 -50 4 2 7
-1 7 -7 0 -6 5 -8 10 -5 6 4 18 1 26 -6 8 -6 17 -9 20 -6 3 3 23 -1 45 -8 22
-8 41 -14 44 -15 3 0 6 0 8 -1 7 -2 44 -11 57 -13 8 -2 22 -6 30 -9 8 -3 33
-11 55 -18 22 -7 59 -20 83 -30 23 -10 45 -20 49 -21 14 -6 65 -63 78 -88 16
-32 13 -99 -10 -175 -10 -33 -17 -61 -17 -62 1 -2 -7 -19 -18 -38 -11 -20 -20
-42 -20 -50 0 -8 -4 -15 -9 -15 -5 0 -15 -16 -22 -35 -7 -19 -17 -35 -21 -35
-4 0 -8 -5 -8 -11 0 -6 -8 -23 -18 -37 -60 -88 -74 -203 -33 -261 13 -17 28
-31 34 -32 56 -3 117 -35 134 -70 16 -34 24 -79 12 -79 -5 0 -9 -9 -9 -20 0
-11 -4 -20 -10 -20 -5 0 -7 -7 -3 -16 3 -9 2 -19 -3 -23 -13 -9 -65 -91 -58
-91 3 0 -1 -6 -8 -14 -76 -81 -107 -136 -103 -186 3 -39 37 -100 56 -100 5 0
9 -6 9 -14 0 -16 127 -76 163 -76 15 0 27 6 28 13 4 44 -3 98 -20 162 -4 17
-8 64 -7 106 1 85 20 133 73 185 17 18 28 35 25 39 -4 4 0 6 8 3 9 -3 15 -16
14 -34 -2 -57 -8 -99 -15 -109 -4 -5 -6 -48 -6 -95 l2 -85 61 -30 c55 -27 70
-31 140 -28 43 1 88 3 99 5 26 4 47 39 33 55 -6 7 -7 13 -3 13 4 0 -24 32 -61
71 -38 39 -74 77 -80 83 -28 30 -33 57 -38 211 -5 144 -11 179 -38 223 -22 35
-86 84 -100 76 -4 -3 -8 0 -8 6 0 6 -4 9 -9 5 -18 -11 -80 58 -83 92 -2 27 15
76 32 93 3 3 23 28 45 55 22 28 67 78 101 113 50 52 69 64 100 68 73 9 90 -11
205 -244 57 -116 107 -208 111 -206 5 3 8 1 8 -5 0 -14 50 -63 69 -66 9 -2 16
-4 16 -5 0 -1 10 -3 23 -4 12 -2 22 1 22 5 0 4 8 6 17 5 10 -2 23 2 30 8 32
28 41 34 46 30 6 -7 20 45 19 74 -1 51 -3 59 -29 89 -16 17 -35 40 -43 51 -40
52 -103 122 -188 209 -87 89 -137 161 -135 191 2 29 4 33 13 27 6 -3 10 1 10
10 0 9 9 28 19 41 11 13 18 36 16 49 -1 14 2 25 7 25 6 0 7 8 3 18 -4 9 -9 29
-12 45 -2 15 -15 52 -29 82 -13 30 -22 55 -19 55 2 0 0 12 -6 27 -5 15 -12 49
-14 75 -2 27 -7 57 -10 68 -3 10 -8 27 -10 37 -2 10 -8 40 -14 66 -6 27 -9 52
-6 57 3 4 1 10 -4 12 -6 1 -12 14 -14 28 -3 14 -11 41 -19 60 -8 19 -14 38
-14 41 1 4 -7 16 -17 26 -9 11 -14 23 -10 26 3 4 1 7 -5 7 -6 0 -22 11 -35 24
-27 27 -66 43 -68 27 -1 -6 -2 -17 -3 -23 -1 -7 0 -17 3 -23 3 -5 6 -18 8 -27
6 -38 11 -54 22 -83 14 -35 20 -52 22 -63 1 -4 8 -22 16 -39 7 -18 10 -33 7
-33 -4 0 -2 -6 4 -12 15 -19 38 -145 36 -193 -1 -16 -2 -40 -3 -52 -3 -55 -35
-3 -57 92 -8 33 -16 68 -19 78 -2 9 0 17 5 17 5 0 2 16 -6 35 -8 19 -11 35 -7
35 4 0 2 5 -5 12 -7 7 -12 25 -12 40 0 15 -4 28 -10 28 -5 0 -7 7 -4 15 4 8 1
15 -6 15 -7 0 -10 7 -6 15 3 8 2 15 -3 15 -5 0 -15 20 -22 45 -7 25 -17 45
-21 45 -4 0 -8 6 -8 14 0 16 -56 76 -71 76 -5 0 -8 3 -6 8 3 4 -8 7 -25 7 -17
1 -32 -4 -34 -10z"/>
<path d="M800 1368 c-30 -4 -63 -9 -72 -10 -10 -1 -18 -6 -18 -10 0 -4 -9 -8
-20 -8 -11 0 -20 -5 -20 -11 0 -5 -4 -8 -9 -5 -4 3 -19 -3 -31 -14 -13 -11
-27 -20 -31 -20 -22 0 -129 -125 -164 -190 -56 -108 -72 -171 -69 -270 3 -107
7 -131 39 -216 24 -65 93 -200 119 -232 36 -46 156 -157 156 -145 0 5 4 4 8
-2 8 -12 34 -28 82 -52 19 -9 37 -19 40 -22 3 -4 12 -7 20 -9 8 -1 24 -7 35
-12 20 -8 91 -32 110 -36 6 -1 24 -5 40 -9 40 -10 285 -14 280 -5 -3 4 10 7
28 7 47 -1 202 45 267 78 15 8 30 12 34 10 3 -3 4 -2 1 1 -2 4 20 22 50 41 30
19 55 38 55 42 0 4 15 19 34 32 18 13 34 27 35 32 0 4 3 6 6 5 8 -4 75 92 95
137 67 147 71 327 9 473 -45 106 -63 142 -71 142 -4 0 -8 4 -8 10 0 5 -16 26
-35 47 -19 20 -31 41 -28 47 3 6 3 8 -2 4 -4 -4 -29 10 -54 33 -65 57 -62 56
-124 66 -27 4 -85 -22 -73 -34 3 -3 1 -13 -4 -23 -8 -15 1 -24 48 -55 169
-110 248 -284 163 -356 -17 -14 -37 -26 -44 -26 -6 0 -34 -4 -62 -8 -48 -6
-60 -8 -122 -20 -16 -3 -53 -13 -83 -22 -30 -9 -61 -17 -67 -19 -30 -6 -109
-39 -115 -48 -4 -6 -10 -7 -14 -4 -3 4 -11 3 -18 -3 -23 -20 -86 -58 -86 -53
0 3 -6 -1 -14 -8 -7 -7 -37 -33 -65 -57 -28 -24 -48 -47 -45 -52 3 -5 1 -9 -5
-9 -8 0 -9 -21 -2 -62 2 -11 92 -2 126 13 17 7 33 12 38 11 4 -1 7 3 7 8 0 6
5 10 11 10 6 0 37 15 68 34 62 38 207 97 215 88 3 -3 6 -1 6 5 0 5 6 10 13 10
6 1 39 10 73 20 33 11 75 19 92 19 18 -1 32 3 32 8 0 5 7 3 15 -4 8 -7 15 -9
15 -6 0 4 13 -2 29 -14 27 -19 29 -23 19 -51 -12 -36 -126 -154 -157 -164 -12
-3 -21 -10 -21 -14 0 -4 -9 -7 -20 -8 -11 -1 -27 -9 -36 -17 -8 -9 -23 -16
-32 -16 -9 0 -30 -7 -45 -15 -15 -8 -34 -12 -42 -8 -8 3 -15 1 -15 -5 0 -10
-86 -28 -105 -22 -5 1 -19 2 -30 1 -76 -8 -219 5 -313 28 -135 34 -246 96
-303 170 -19 25 -34 47 -33 50 1 3 -5 11 -12 16 -12 10 -51 113 -54 145 -12
130 12 320 40 320 5 0 7 6 4 14 -3 7 9 25 26 40 17 14 28 26 23 26 -4 1 6 8
22 17 17 10 33 16 38 15 4 -1 7 2 7 7 0 5 17 16 38 25 96 42 155 92 160 137 4
37 -14 46 -78 37z"/>
<path d="M2060 812 c-23 -8 -55 -36 -59 -52 -10 -42 4 -87 30 -95 10 -4 19
-11 19 -17 0 -6 3 -8 6 -5 4 3 16 2 26 -4 11 -6 63 -10 115 -10 64 1 101 -3
111 -11 8 -7 17 -11 19 -9 5 5 71 -9 102 -21 30 -13 51 -19 69 -20 6 -1 12 -5
12 -10 0 -4 6 -8 14 -8 7 0 35 -10 62 -22 27 -12 51 -23 54 -23 3 -1 21 -8 40
-17 84 -36 180 -56 180 -36 0 4 7 8 15 8 18 0 19 20 4 52 -18 38 -109 102
-184 130 -94 35 -110 40 -111 36 0 -2 -7 2 -15 8 -8 7 -30 15 -49 19 -19 4
-40 11 -45 16 -6 4 -22 10 -35 13 -24 5 -84 21 -125 32 -46 13 -161 36 -178
36 -10 -1 -28 3 -40 7 -12 5 -29 6 -37 3z"/>
</g>
</svg>
