<?xml version="1.0" encoding="UTF-8"?>
<svg version="1.1" xmlns="http://www.w3.org/2000/svg" width="642" height="119">
<path d="M0 0 C3.44748958 0.64047398 5.84644185 1.99705019 8.75 3.9375 C9.54921875 4.46214844 10.3484375 4.98679687 11.171875 5.52734375 C11.77515625 6.01332031 12.3784375 6.49929687 13 7 C13 7.66 13 8.32 13 9 C16.96 9.33 20.92 9.66 25 10 C26.73191032 15.19573096 23.78219971 19.97743719 22 25 C16.06 24.34 10.12 23.68 4 23 C4.495 23.99 4.495 23.99 5 25 C6.8974159 25.54510346 6.8974159 25.54510346 9.18359375 25.81640625 C10.02857422 25.94080078 10.87355469 26.06519531 11.74414062 26.19335938 C12.63294922 26.31517578 13.52175781 26.43699219 14.4375 26.5625 C16.18661011 26.81091695 17.93533174 27.06208938 19.68359375 27.31640625 C20.46275146 27.42412354 21.24190918 27.53184082 22.04467773 27.64282227 C24 28 24 28 26 29 C25.52372025 30.95903745 25.04388577 32.91721097 24.5625 34.875 C24.29566406 35.96554688 24.02882813 37.05609375 23.75390625 38.1796875 C23 41 23 41 22 43 C19.03 43 16.06 43 13 43 C14.65 45.97 16.3 48.94 18 52 C19.11375 51.01 20.2275 50.02 21.375 49 C24.75 46 24.75 46 27 46 C28.06099328 47.73835057 29.09826483 49.49119804 30.125 51.25 C30.70507812 52.22453125 31.28515625 53.1990625 31.8828125 54.203125 C33 57 33 57 32.26245117 58.97705078 C30.11913814 62.41149128 27.15085471 64.901753 24.1875 67.625 C23.57068359 68.21023437 22.95386719 68.79546875 22.31835938 69.3984375 C19.06425912 72.41392679 16.35128083 74.72362429 12 76 C10.82845707 73.71070947 9.66261926 71.41881638 8.5 69.125 C8.16613281 68.47402344 7.83226562 67.82304688 7.48828125 67.15234375 C5 62.2265625 5 62.2265625 5 60 C3.78376953 59.90912109 3.78376953 59.90912109 2.54296875 59.81640625 C-4.64437747 59.2725442 -11.82386699 58.67590832 -19 58 C-19.68707031 59.10859375 -20.37414062 60.2171875 -21.08203125 61.359375 C-21.99209119 62.82297656 -22.90225278 64.28651491 -23.8125 65.75 C-24.26431641 66.47960937 -24.71613281 67.20921875 -25.18164062 67.9609375 C-27.33179647 71.41374251 -29.47050272 74.80661473 -32 78 C-37.02692063 77.54300722 -40.14896261 75.00758252 -44 72 C-43.43555175 67.65136348 -41.84572036 64.82172345 -39.4375 61.1875 C-38.79683594 60.21167969 -38.15617187 59.23585937 -37.49609375 58.23046875 C-36.75552734 57.12638672 -36.75552734 57.12638672 -36 56 C-37.65 55.67 -39.3 55.34 -41 55 C-40.71390693 53.60301364 -40.42083095 52.2074567 -40.125 50.8125 C-39.96257812 50.03519531 -39.80015625 49.25789063 -39.6328125 48.45703125 C-39 46 -39 46 -37 41 C-33.04 41 -29.08 41 -25 41 C-24.34 39.35 -23.68 37.7 -23 36 C-21.91503906 34.2265625 -21.91503906 34.2265625 -20.765625 32.625 C-20.35699219 32.03203125 -19.94835937 31.4390625 -19.52734375 30.828125 C-18.67062405 29.60199406 -17.80324809 28.38324516 -16.92578125 27.171875 C-15.51187135 25.1774791 -15.51187135 25.1774791 -14 22 C-14.64156605 19.34398007 -14.64156605 19.34398007 -16 17 C-16.125 14.1875 -16.125 14.1875 -16 12 C-14.39967863 11.15930585 -12.79458829 10.32768495 -11.1875 9.5 C-10.29417969 9.0359375 -9.40085938 8.571875 -8.48046875 8.09375 C-6 7 -6 7 -3 7 C-2.690625 6.21625 -2.38125 5.4325 -2.0625 4.625 C-1 2 -1 2 0 0 Z M-6 36 C-6.89349627 37.28604874 -7.74034292 38.60471544 -8.5625 39.9375 C-9.01753906 40.66839844 -9.47257812 41.39929688 -9.94140625 42.15234375 C-11.0828544 43.78970872 -11.0828544 43.78970872 -11 45 C-7.7 45.33 -4.4 45.66 -1 46 C-2.32 42.7 -3.64 39.4 -5 36 C-5.33 36 -5.66 36 -6 36 Z " fill="#FFFFFF" transform="translate(106,25)"/>
<path d="M0 0 C3.25207092 1.41738489 5.31361067 3.12526412 7.75 5.6875 C10.4302304 8.44231937 13.14581567 11.05924859 16.0625 13.5625 C19.90032831 16.86075245 23.47299715 20.3738002 27 24 C24.74955401 26.44457392 22.44198707 28.09902934 19.5625 29.75 C18.80066406 30.19859375 18.03882813 30.6471875 17.25390625 31.109375 C15 32 15 32 12.98046875 31.86328125 C9.02490185 30.13905978 6.14782343 26.88550481 3 24 C1.35 29.28 -0.3 34.56 -2 40 C0.09601563 39.566875 0.09601563 39.566875 2.234375 39.125 C4.07287503 38.74979591 5.91141901 38.37480714 7.75 38 C8.67039062 37.80921875 9.59078125 37.6184375 10.5390625 37.421875 C11.42851562 37.24140625 12.31796875 37.0609375 13.234375 36.875 C14.05131836 36.70742188 14.86826172 36.53984375 15.70996094 36.3671875 C18 36 18 36 22 36 C32.88196722 57.38629008 32.88196722 57.38629008 36.75 66.125 C37.21921875 67.17945312 37.6884375 68.23390625 38.171875 69.3203125 C39.09691436 72.31360023 39.35203592 73.20512476 38 76 C35.65598579 77.33263172 33.48743031 78.37230366 31.0078125 79.3828125 C30.30606903 79.68315399 29.60432556 79.98349548 28.88131714 80.29293823 C26.63495087 81.2512194 24.38058693 82.18865518 22.125 83.125 C19.87848193 84.072547 17.6338013 85.02427424 15.3901062 85.97848511 C13.99314483 86.5709506 12.59421313 87.15879647 11.19314575 87.7414856 C8.2446353 88.97801183 5.67122272 90.21918485 3 92 C1.68 92 0.36 92 -1 92 C-2.78344727 90.04394531 -2.78344727 90.04394531 -4.56640625 87.328125 C-5.21673828 86.35359375 -5.86707031 85.3790625 -6.53710938 84.375 C-7.20548828 83.34375 -7.87386719 82.3125 -8.5625 81.25 C-9.89665513 79.23405706 -11.23127309 77.21842033 -12.56640625 75.203125 C-13.15365479 74.30239258 -13.74090332 73.40166016 -14.34594727 72.47363281 C-15.94356707 70.00721037 -15.94356707 70.00721037 -17.71459961 67.86230469 C-19 66 -19 66 -19 63 C-16.92289254 62.27361271 -14.83799688 61.56946592 -12.75 60.875 C-11.00976562 60.28332031 -11.00976562 60.28332031 -9.234375 59.6796875 C-6 59 -6 59 -3.8125 59.5625 C-1.41714113 61.46226738 0.0563756 63.5845634 1.75 66.125 C2.36359375 67.03507812 2.9771875 67.94515625 3.609375 68.8828125 C4.06828125 69.58148438 4.5271875 70.28015625 5 71 C8.44669625 70.42655667 11.22188165 69.56138422 14.3125 67.9375 C15.00988281 67.57527344 15.70726562 67.21304688 16.42578125 66.83984375 C16.94527344 66.56269531 17.46476562 66.28554687 18 66 C17.45859375 64.84371094 17.45859375 64.84371094 16.90625 63.6640625 C16.4421875 62.66117188 15.978125 61.65828125 15.5 60.625 C15.0359375 59.62726563 14.571875 58.62953125 14.09375 57.6015625 C13 55 13 55 13 53 C11.78376953 53.29003906 11.78376953 53.29003906 10.54296875 53.5859375 C-9.78108808 58.36528497 -9.78108808 58.36528497 -18 58 C-18.36994749 56.336765 -18.72005921 54.66911537 -19.0625 53 C-19.35833984 51.6078125 -19.35833984 51.6078125 -19.66015625 50.1875 C-20.4051681 43.19980262 -18.52413811 36.74048685 -16.49609375 30.125 C-16.2533522 29.31506592 -16.01061066 28.50513184 -15.76051331 27.6706543 C-14.99216086 25.1119215 -14.21499448 22.5559679 -13.4375 20 C-12.91152189 18.25408313 -12.38612558 16.50799087 -11.86132812 14.76171875 C-10.58093385 10.50575594 -9.29263387 6.25226057 -8 2 C-7.05125 2.04125 -6.1025 2.0825 -5.125 2.125 C-1.89755144 2.34973818 -1.89755144 2.34973818 0 0 Z " fill="#FFFFFF" transform="translate(329,11)"/>
<path d="M0 0 C4.00222582 0.52533534 5.89125173 1.51318899 8.8125 4.25 C14.98997208 9.34536388 22.40205211 10.97698811 30 13 C29.34561841 18.2922317 28.24096012 22.22578062 26 27 C19.51527007 26.26309887 13.30760257 24.64681249 7 23 C6.67 23.99 6.34 24.98 6 26 C6.60585938 26.09796875 7.21171875 26.1959375 7.8359375 26.296875 C14.27658746 27.4462833 20.01456522 29.37659667 26 32 C25.71517632 33.41805831 25.42181856 34.83440379 25.125 36.25 C24.96257812 37.03890625 24.80015625 37.8278125 24.6328125 38.640625 C24.00849925 40.96831144 23.15161458 42.89031952 22 45 C20.43765625 44.85498047 20.43765625 44.85498047 18.84375 44.70703125 C14.07893309 45.07020327 12.78056922 46.30317784 9.5 49.6875 C8.6234375 50.55761719 7.746875 51.42773438 6.84375 52.32421875 C4.74899675 54.81443583 4.74899675 54.81443583 5.02734375 57.59375 C6.06520195 60.16130281 7.19130512 61.7820545 9.0625 63.8125 C9.88427734 64.71935547 9.88427734 64.71935547 10.72265625 65.64453125 C11.14417969 66.09183594 11.56570313 66.53914063 12 67 C19.31330165 60.90558196 26.04680731 54.44149086 32 47 C35.70503641 47.60334309 37.85968148 49.22474237 40.75 51.5625 C41.54921875 52.20316406 42.3484375 52.84382813 43.171875 53.50390625 C43.77515625 53.99761719 44.3784375 54.49132812 45 55 C43.33917222 59.14703664 40.33995507 62.06680499 37.3125 65.25 C36.22591067 66.41084854 35.13997067 67.57230523 34.0546875 68.734375 C33.5297168 69.29447266 33.00474609 69.85457031 32.46386719 70.43164062 C26.96968722 76.1746124 26.96968722 76.1746124 22.5 82.6875 C20.38377637 85.95001143 17.59789946 88.45804309 14 90 C10.64725035 89.89936454 9.36330736 89.3591234 6.96484375 86.98828125 C6.29582031 86.10527344 5.62679688 85.22226563 4.9375 84.3125 C4.16792969 83.32507813 3.39835937 82.33765625 2.60546875 81.3203125 C2.19087402 80.78567383 1.7762793 80.25103516 1.34912109 79.70019531 C-1.09466113 76.62048134 -3.67831404 73.6604532 -6.25 70.6875 C-7.70560496 69.00023 -9.16003036 67.31240153 -10.60351562 65.61474609 C-11.54964412 64.52074367 -12.51812725 63.44575169 -13.50585938 62.38916016 C-16.98877613 58.55915273 -16.98877613 58.55915273 -17.04296875 55.859375 C-15.74951142 53.55343609 -14.25763228 52.04322672 -12.3125 50.25 C-8.37218468 46.47297703 -5.13144158 42.45993195 -2 38 C-3.010625 37.896875 -4.02125 37.79375 -5.0625 37.6875 C-9.21218208 36.96295233 -12.21356263 35.77730734 -16 34 C-15.37954537 29.76677156 -13.89476441 26.47709705 -11.9375 22.6875 C-11.38964844 21.61886719 -10.84179688 20.55023438 -10.27734375 19.44921875 C-9.64505859 18.23685547 -9.64505859 18.23685547 -9 17 C-9.99 16.67 -10.98 16.34 -12 16 C-10.86935881 12.710862 -9.37513313 9.74407392 -7.625 6.75 C-7.22539062 6.06421875 -6.82578125 5.3784375 -6.4140625 4.671875 C-4.69505554 2.63945794 -3.54602343 2.52387313 -1 2 C-0.67 1.34 -0.34 0.68 0 0 Z " fill="#FFFFFF" transform="translate(263,13)"/>
<path d="M0 0 C4.98012761 1.50912958 8.24259942 4.55661849 12 8 C11.23177266 9.56378292 10.46028836 11.125966 9.6875 12.6875 C9.23503906 13.60273437 8.78257812 14.51796875 8.31640625 15.4609375 C7 18 7 18 5.125 20.8125 C3.64617563 23.68799182 4.2002188 24.91049279 5 28 C5.57318114 29.54130108 6.19071863 31.06671134 6.84765625 32.57421875 C7.20537109 33.40630859 7.56308594 34.23839844 7.93164062 35.09570312 C8.49141602 36.37864258 8.49141602 36.37864258 9.0625 37.6875 C9.80661867 39.39833693 10.54766356 41.11051512 11.28515625 42.82421875 C11.61394775 43.57791748 11.94273926 44.33161621 12.28149414 45.1081543 C13 47 13 47 13 49 C14.0725 48.979375 15.145 48.95875 16.25 48.9375 C19.14790424 48.9857984 21.28612141 49.13155885 24 50 C24.84681133 55.08086796 25.09038099 59.84828377 25 65 C23.68 65 22.36 65 21 65 C21 66.65 21 68.3 21 70 C14.565 70.99 14.565 70.99 8 72 C7.566875 70.72125 7.13375 69.4425 6.6875 68.125 C5.30529827 65.37514603 4.58530852 64.24030554 1.70703125 63.05859375 C-1.20274845 62.52534408 -4.04969118 62.21895374 -7 62 C-8.11761719 61.89300781 -9.23523438 61.78601563 -10.38671875 61.67578125 C-13.25678661 61.41424844 -16.12504772 61.19796632 -19 61 C-19.51385254 61.90093384 -19.51385254 61.90093384 -20.03808594 62.82006836 C-21.59561623 65.53365211 -23.17245995 68.23550407 -24.75 70.9375 C-25.28882813 71.88302734 -25.82765625 72.82855469 -26.3828125 73.80273438 C-27.17558594 75.15141602 -27.17558594 75.15141602 -27.984375 76.52734375 C-28.70705566 77.77632446 -28.70705566 77.77632446 -29.44433594 79.05053711 C-31 81 -31 81 -33.04101562 81.86914062 C-36.10705165 82.07395061 -37.45482376 80.48639773 -39.75 78.5625 C-40.54921875 77.90378906 -41.3484375 77.24507813 -42.171875 76.56640625 C-42.77515625 76.04949219 -43.3784375 75.53257813 -44 75 C-42.42986223 69.03347646 -39.24970218 64.17090975 -36 59 C-37.65 58.34 -39.3 57.68 -41 57 C-39.97137215 51.55432314 -38.75385216 46.88182883 -36 42 C-35.09121094 42.2784375 -35.09121094 42.2784375 -34.1640625 42.5625 C-30.90139332 43.124683 -29.14842418 43.13326229 -26 42 C-20.52659716 36.39473031 -15.47614131 27.89034175 -15 20 C-15.85296678 16.21940955 -15.85296678 16.21940955 -17 13 C-15.58957044 12.15615325 -14.17135868 11.32530504 -12.75 10.5 C-11.96109375 10.0359375 -11.1721875 9.571875 -10.359375 9.09375 C-8 8 -8 8 -4 8 C-3.71125 7.236875 -3.4225 6.47375 -3.125 5.6875 C-2 3 -2 3 0 0 Z M-8 38 C-10.96235695 41.63323689 -10.96235695 41.63323689 -12 46 C-9.03 46.33 -6.06 46.66 -3 47 C-3.55728913 43.65626525 -4.35173889 40.96687001 -6 38 C-6.66 38 -7.32 38 -8 38 Z " fill="#FFFFFF" transform="translate(554,23)"/>
<path d="M0 0 C3.41970572 0.64168391 5.78023105 1.99299981 8.6875 3.875 C14.26963864 7.29446797 19.649169 9.16779624 25.97265625 10.73828125 C26.97167969 10.98964844 27.97070312 11.24101562 29 11.5 C29.928125 11.7165625 30.85625 11.933125 31.8125 12.15625 C32.534375 12.4346875 33.25625 12.713125 34 13 C35.305239 16.91571701 34.32239848 18.03892997 32.5625 21.6875 C32.08941406 22.68136719 31.61632813 23.67523438 31.12890625 24.69921875 C30.75636719 25.45847656 30.38382813 26.21773437 30 27 C29.45061768 26.88406494 28.90123535 26.76812988 28.33520508 26.64868164 C25.82769342 26.11968524 23.32009754 25.59108912 20.8125 25.0625 C19.94818359 24.88009766 19.08386719 24.69769531 18.19335938 24.50976562 C14.13255919 23.65404145 10.07205686 22.80092216 6 22 C6 22.99 6 23.98 6 25 C13.92 27.31 21.84 29.62 30 32 C29.22998773 35.85006136 28.6738858 38.00776573 26.9375 41.3125 C26.57527344 42.00988281 26.21304688 42.70726562 25.83984375 43.42578125 C25.56269531 43.94527344 25.28554688 44.46476562 25 45 C24.38511719 44.96519531 23.77023438 44.93039063 23.13671875 44.89453125 C21.92435547 44.85392578 21.92435547 44.85392578 20.6875 44.8125 C19.88699219 44.77769531 19.08648437 44.74289063 18.26171875 44.70703125 C15.423942 45.07461891 14.75111255 45.77967796 13 48 C12.56815057 50.03196248 12.56815057 50.03196248 12.65942383 52.2878418 C12.65965042 53.14850754 12.65987701 54.00917328 12.66011047 54.8959198 C12.67559433 55.82100845 12.69107819 56.74609711 12.70703125 57.69921875 C12.71339851 59.12449638 12.71339851 59.12449638 12.71989441 60.5785675 C12.73669516 63.61516588 12.77435008 66.65110202 12.8125 69.6875 C12.82754503 71.74543313 12.84123375 73.80337665 12.85351562 75.86132812 C12.88660329 80.90780748 12.93839538 85.95379144 13 91 C11.5583309 90.85082612 10.11698435 90.69853265 8.67578125 90.54492188 C7.87309814 90.460448 7.07041504 90.37597412 6.2434082 90.28894043 C3.7028946 89.96173422 1.41099004 89.36106787 -1 88.5 C-1.7425 88.2421875 -2.485 87.984375 -3.25 87.71875 C-5 87 -5 87 -6 86 C-6.43260499 79.94946646 -6.59836864 73.89041852 -6.77734375 67.82763672 C-6.84223264 65.78266328 -6.91800857 63.73800513 -7.00488281 61.69384766 C-7.12969678 58.74928596 -7.22082973 55.80535415 -7.3046875 52.859375 C-7.34923065 51.94774597 -7.3937738 51.03611694 -7.43966675 50.09686279 C-7.56465932 43.85632458 -7.56465932 43.85632458 -5.86480713 41.27844238 C-4.48095703 39.88378906 -4.48095703 39.88378906 -2 38 C-3.134375 37.896875 -4.26875 37.79375 -5.4375 37.6875 C-10.19397351 37.10889499 -14.51898346 35.64926303 -19 34 C-18.66830805 27.69785303 -15.32676012 23.14783064 -12 18 C-12.99 17.34 -13.98 16.68 -15 16 C-13.50923566 12.7173068 -11.61379679 10.06922559 -9.375 7.25 C-8.74335938 6.45078125 -8.11171875 5.6515625 -7.4609375 4.828125 C-6.97882812 4.22484375 -6.49671875 3.6215625 -6 3 C-4.68 3.33 -3.36 3.66 -2 4 C-1.34 2.68 -0.68 1.36 0 0 Z " fill="#FFFFFF" transform="translate(30,12)"/>
<path d="M0 0 C4.57263314 0.42536122 7.99065362 1.80440556 12 4 C11.4155004 9.26979061 9.66147984 13.40448368 7.421875 18.1328125 C7.05853561 18.91508713 6.69519623 19.69736176 6.32084656 20.50334167 C5.13740694 23.04714938 3.9438056 25.58604286 2.75 28.125 C1.93298511 29.87622447 1.11666473 31.62777311 0.30102539 33.37963867 C-1.34168796 36.90538362 -2.98823712 40.42929446 -4.63818359 43.95166016 C-6.78646219 48.53964416 -8.92204239 53.13339075 -11.05078125 57.73046875 C-11.35505035 58.38740723 -11.65931946 59.0443457 -11.97280884 59.72119141 C-12.55665178 60.98181728 -13.14046438 62.24245721 -13.72424316 63.50311279 C-15.04466166 66.35325161 -16.36760152 69.20221389 -17.69140625 72.05078125 C-18.11623291 72.96512939 -18.54105957 73.87947754 -18.97875977 74.8215332 C-19.63549643 76.22245629 -20.30806235 77.61612471 -21 79 C-25.85340204 79.26963345 -29.63742094 78.9578297 -34.2890625 77.48828125 C-35.1754541 77.21153564 -36.0618457 76.93479004 -36.97509766 76.6496582 C-37.97742432 76.32807739 -37.97742432 76.32807739 -39 76 C-39.43473378 70.16963424 -39.86160053 64.33875997 -40.28173828 58.50732422 C-40.42517805 56.53093606 -40.57062552 54.5546924 -40.71826172 52.57861328 C-41.6047183 40.69285869 -42.23207974 28.92202241 -42 17 C-35.565 16.505 -35.565 16.505 -29 16 C-28.08399581 19.66401675 -27.7319347 22.83930711 -27.5 26.59375 C-27.37625 28.50994141 -27.37625 28.50994141 -27.25 30.46484375 C-27.12415184 32.4857882 -26.99958027 34.50680908 -26.875 36.52783203 C-26.75296816 38.48749178 -26.62653878 40.44687611 -26.5 42.40625 C-26.4278125 43.57478516 -26.355625 44.74332031 -26.28125 45.94726562 C-26.0526539 48.42848577 -25.70268323 50.61966054 -25 53 C-24.59273682 52.09983154 -24.18547363 51.19966309 -23.76586914 50.2722168 C-10.11886939 20.12097399 -10.11886939 20.12097399 -4.625 8.5 C-4.08178101 7.34697388 -4.08178101 7.34697388 -3.52758789 6.1706543 C-1.12701008 1.12701008 -1.12701008 1.12701008 0 0 Z " fill="#FFFFFF" transform="translate(501,24)"/>
<path d="M0 0 C0 2.31 0 4.62 0 7 C1.48113281 7.09087891 1.48113281 7.09087891 2.9921875 7.18359375 C4.27351563 7.26738281 5.55484375 7.35117187 6.875 7.4375 C8.15117187 7.51871094 9.42734375 7.59992187 10.7421875 7.68359375 C14 8 14 8 16 9 C16 13.62 16 18.24 16 23 C10.72 22.67 5.44 22.34 0 22 C0.020625 24.26875 0.04125 26.5375 0.0625 28.875 C0.11293185 40.92575296 -0.47805127 52.96325142 -1 65 C-2.98 65.495 -2.98 65.495 -5 66 C-4.34 66.99 -3.68 67.98 -3 69 C-2.01 69 -1.02 69 0 69 C1.06136874 84.12871628 1.06136874 84.12871628 -1.41796875 88.5 C-3.28045519 90.15201356 -4.62727354 91.23802687 -7 92 C-9.98047427 91.63571981 -10.83122012 91.16877988 -13 89 C-13.48082031 88.57074219 -13.96164062 88.14148438 -14.45703125 87.69921875 C-16.38010319 85.58140534 -17.45028054 83.38725401 -18.6875 80.8125 C-19.12449219 79.91144531 -19.56148438 79.01039062 -20.01171875 78.08203125 C-20.50091797 77.05142578 -20.50091797 77.05142578 -21 76 C-19.515 75.505 -19.515 75.505 -18 75 C-18.433125 74.03578125 -18.86625 73.0715625 -19.3125 72.078125 C-19.87538471 70.80225299 -20.43786348 69.52620183 -21 68.25 C-21.28617187 67.61578125 -21.57234375 66.9815625 -21.8671875 66.328125 C-23.36006702 62.91582896 -24 60.79218083 -24 57 C-21.36 56.01 -18.72 55.02 -16 54 C-15.07226123 46.64825496 -14.69807851 39.34049273 -14.4375 31.9375 C-14.39431641 30.78572266 -14.35113281 29.63394531 -14.30664062 28.44726562 C-14.20149198 25.63161849 -14.10033637 22.81582272 -14 20 C-19.61 19.34 -25.22 18.68 -31 18 C-29.97596189 13.09924621 -28.95318673 8.62035348 -27 4 C-25.80117188 4.06960938 -25.80117188 4.06960938 -24.578125 4.140625 C-17.14836138 4.38479564 -11.31300404 3.52602008 -4.36328125 0.875 C-2 0 -2 0 0 0 Z " fill="#FFFFFF" transform="translate(400,11)"/>
<path d="M0 0 C-0.10777196 7.58910455 -0.22045882 15.1781228 -0.33933926 22.76706123 C-0.39439347 26.2912918 -0.44778434 29.81553088 -0.49731445 33.33984375 C-0.55439199 37.39592021 -0.61881102 41.45185173 -0.68359375 45.5078125 C-0.70030624 46.76739777 -0.71701874 48.02698303 -0.73423767 49.32473755 C-0.75418289 50.50550873 -0.77412811 51.68627991 -0.79467773 52.90283203 C-0.81022202 53.93763702 -0.8257663 54.97244202 -0.84178162 56.03860474 C-1.0060308 59.11287931 -1.31595652 61.99671451 -2 65 C-4.0625 66.375 -4.0625 66.375 -6 67 C-5.34 67.66 -4.68 68.32 -4 69 C-2.95199219 68.62746094 -1.90398437 68.25492187 -0.82421875 67.87109375 C0.55452301 67.39275477 1.93343843 66.91491617 3.3125 66.4375 C4.34793945 66.0672168 4.34793945 66.0672168 5.40429688 65.68945312 C10.66015625 63.88671875 10.66015625 63.88671875 14 65 C15.16796875 67.94140625 15.16796875 67.94140625 16.1875 71.5625 C16.53167969 72.76003906 16.87585938 73.95757812 17.23046875 75.19140625 C17.48441406 76.11824219 17.73835938 77.04507813 18 78 C17.35933594 78.25394531 16.71867187 78.50789063 16.05859375 78.76953125 C14.25570899 79.48692355 12.45503935 80.20989981 10.65625 80.9375 C8.59601072 81.76159571 6.51963234 82.54539861 4.4375 83.3125 C0.48422839 85.25319697 -2.5562308 87.71697953 -5.88671875 90.57421875 C-8 92 -8 92 -12 92 C-12.66 91.01 -13.32 90.02 -14 89 C-14.99 88.67 -15.98 88.34 -17 88 C-18.60546875 85.8203125 -18.60546875 85.8203125 -20.1875 83.125 C-20.71730469 82.24070312 -21.24710938 81.35640625 -21.79296875 80.4453125 C-23 78 -23 78 -23 75 C-22.01 75 -21.02 75 -20 75 C-20.75796875 73.42798828 -20.75796875 73.42798828 -21.53125 71.82421875 C-22.18780327 70.44545688 -22.84403665 69.06654264 -23.5 67.6875 C-23.83386719 66.99720703 -24.16773438 66.30691406 -24.51171875 65.59570312 C-27 60.33984375 -27 60.33984375 -27 57 C-23.7 56.01 -20.4 55.02 -17 54 C-16.67 37.5 -16.34 21 -16 4 C-4.97478992 -0.13445378 -4.97478992 -0.13445378 0 0 Z " fill="#FFFFFF" transform="translate(227,11)"/>
<path d="M0 0 C-0.11837915 7.48911498 -0.24318657 14.97810372 -0.37231445 22.46704102 C-0.41543723 25.01096206 -0.45712666 27.55490785 -0.49731445 30.09887695 C-0.55557009 33.77042067 -0.61910084 37.44184242 -0.68359375 41.11328125 C-0.70030624 42.23769119 -0.71701874 43.36210114 -0.73423767 44.52058411 C-0.7926113 47.68226526 -0.88417902 50.83993007 -1 54 C-1.03368683 55.04836029 -1.06737366 56.09672058 -1.1020813 57.17684937 C-1.18508987 58.66361679 -1.18508987 58.66361679 -1.26977539 60.18041992 C-1.31332657 61.0618718 -1.35687775 61.94332367 -1.40174866 62.85148621 C-2 65 -2 65 -4.04563904 66.30122375 C-4.69057816 66.53181992 -5.33551727 66.76241608 -6 67 C-5.34 67.66 -4.68 68.32 -4 69 C-2.95199219 68.62746094 -1.90398438 68.25492187 -0.82421875 67.87109375 C0.55452301 67.39275477 1.93343843 66.91491617 3.3125 66.4375 C4.34793945 66.0672168 4.34793945 66.0672168 5.40429688 65.68945312 C10.66015625 63.88671875 10.66015625 63.88671875 14 65 C15.16796875 67.94140625 15.16796875 67.94140625 16.1875 71.5625 C16.53167969 72.76003906 16.87585938 73.95757812 17.23046875 75.19140625 C17.48441406 76.11824219 17.73835937 77.04507813 18 78 C15.73117913 78.83919398 13.46022973 79.67151724 11.1875 80.5 C10.22360352 80.85771484 10.22360352 80.85771484 9.24023438 81.22265625 C6.35066261 82.27068746 4.09923939 83 1 83 C0.67 83.99 0.34 84.98 0 86 C-1.70703125 87.60546875 -1.70703125 87.60546875 -3.8125 89.1875 C-4.49957031 89.71730469 -5.18664062 90.24710937 -5.89453125 90.79296875 C-8 92 -8 92 -12 92 C-12.66 91.01 -13.32 90.02 -14 89 C-14.99 88.67 -15.98 88.34 -17 88 C-18.60546875 85.8203125 -18.60546875 85.8203125 -20.1875 83.125 C-20.71730469 82.24070312 -21.24710938 81.35640625 -21.79296875 80.4453125 C-23 78 -23 78 -23 75 C-22.01 75 -21.02 75 -20 75 C-20.75796875 73.42798828 -20.75796875 73.42798828 -21.53125 71.82421875 C-22.18780327 70.44545688 -22.84403665 69.06654264 -23.5 67.6875 C-23.83386719 66.99720703 -24.16773438 66.30691406 -24.51171875 65.59570312 C-27 60.33984375 -27 60.33984375 -27 57 C-23.7 56.01 -20.4 55.02 -17 54 C-16.67 37.5 -16.34 21 -16 4 C-4.97478992 -0.13445378 -4.97478992 -0.13445378 0 0 Z " fill="#FFFFFF" transform="translate(611,11)"/>
<path d="M0 0 C0.02514475 6.04247755 0.04306495 12.08492316 0.05493164 18.12744141 C0.05989044 20.17334525 0.06665952 22.2192457 0.07543945 24.26513672 C0.13230399 37.87917696 -0.16868679 51.41032526 -1 65 C-2.98 65.99 -2.98 65.99 -5 67 C-5 67.66 -5 68.32 -5 69 C-3.80761719 68.62746094 -2.61523438 68.25492187 -1.38671875 67.87109375 C0.17954818 67.39277271 1.74596218 66.91493311 3.3125 66.4375 C4.49102539 66.0672168 4.49102539 66.0672168 5.69335938 65.68945312 C6.45068359 65.46064453 7.20800781 65.23183594 7.98828125 64.99609375 C8.68477783 64.78138428 9.38127441 64.5666748 10.09887695 64.34545898 C12 64 12 64 15 65 C15.984375 66.890625 15.984375 66.890625 16.75 69.25 C17.14445312 70.40242188 17.14445312 70.40242188 17.546875 71.578125 C18.06457142 74.34512309 17.70931337 76.29694095 17 79 C15.515 79.41958984 15.515 79.41958984 14 79.84765625 C6.76517135 82.00583 0.98639479 83.85037183 -4.2890625 89.546875 C-6.44531501 91.37821275 -8.23187406 91.64099391 -11 92 C-11.33 90.68 -11.66 89.36 -12 88 C-13.485 88.495 -13.485 88.495 -15 89 C-16.17491582 87.23462904 -17.33968684 85.46250287 -18.5 83.6875 C-19.47453125 82.20830078 -19.47453125 82.20830078 -20.46875 80.69921875 C-22 78 -22 78 -22 75 C-21.01 74.505 -21.01 74.505 -20 74 C-20.6496875 72.66195312 -20.6496875 72.66195312 -21.3125 71.296875 C-21.869375 70.12640625 -22.42625 68.9559375 -23 67.75 C-23.556875 66.58984375 -24.11375 65.4296875 -24.6875 64.234375 C-26 61 -26 61 -26 57 C-22.7 56.01 -19.4 55.02 -16 54 C-16.01160156 53.15566406 -16.02320313 52.31132813 -16.03515625 51.44140625 C-16.14669153 35.61932999 -15.52596242 19.81104594 -15 4 C-5.76675603 0 -5.76675603 0 0 0 Z " fill="#FFFFFF" transform="translate(175,11)"/>
<path d="M0 0 C3.96 0 7.92 0 12 0 C13.1843093 21.00034169 13.10429192 41.97474834 13 63 C9.04 63 5.08 63 1 63 C-0.07447204 56.04009804 -0.12890419 49.2211819 -0.09765625 42.1875 C-0.0962413 40.97803711 -0.09482635 39.76857422 -0.09336853 38.52246094 C-0.08779709 34.68161485 -0.07524984 30.8408283 -0.0625 27 C-0.05748131 24.3867196 -0.05291905 21.77343827 -0.04882812 19.16015625 C-0.03783701 12.77341476 -0.02059209 6.38671746 0 0 Z " fill="#FFFFFF" transform="translate(427,40)"/>
<path d="M0 0 C3.96 0 7.92 0 12 0 C12 4.95 12 9.9 12 15 C8.04 15 4.08 15 0 15 C0 10.05 0 5.1 0 0 Z " fill="#FFFFFF" transform="translate(427,14)"/>
</svg>
